<svg width="33" height="33" viewBox="0 0 33 33" xmlns="http://www.w3.org/2000/svg"><path d="M167,33.6004057 C167,24.4300203 159.614919,17 150.5,17 C141.385081,17 134,24.4300203 134,33.6004057 C134,41.8858824 140.03381,48.7536308 147.921875,50 L147.921875,38.3991278 L143.730343,38.3991278 L143.730343,33.6004057 L147.921875,33.6004057 L147.921875,29.9429615 C147.921875,25.7828195 150.383569,23.4848682 154.153952,23.4848682 C155.959637,23.4848682 157.847823,23.8088438 157.847823,23.8088438 L157.847823,27.8920081 L155.766694,27.8920081 C153.7175,27.8920081 153.078125,29.1718458 153.078125,30.4844828 L153.078125,33.6004057 L157.654214,33.6004057 L156.922359,38.3991278 L153.078125,38.3991278 L153.078125,50 C160.96619,48.7536308 167,41.8858824 167,33.6004057 Z" transform="translate(-134 -17)" fill="#3EBDFE"/></svg>