<svg width="48" height="47" viewBox="0 0 48 47" xmlns="http://www.w3.org/2000/svg"><g fill="none" fill-rule="evenodd"><rect fill="#A7B86F" width="48" height="47" rx="10"/><path d="M27.1320565,18.2862903 L17.594879,22.6895161 C16.73625,23.09 16.2959274,23.9753629 16.4987903,24.89375 C16.7021774,25.80375 17.4601613,26.4154839 18.3890323,26.4154839 L21.5850403,26.4154839 L21.5850403,29.6104435 C21.5850403,30.5393145 22.19625,31.2993952 23.1067742,31.5006855 C23.2556452,31.5331855 23.4050403,31.5499597 23.5491935,31.5499597 C24.2993145,31.5499597 24.9760484,31.1232661 25.3115323,30.4014516 L29.7137097,20.866371 L29.7268145,20.8375403 C30.0250806,20.1225403 29.8494758,19.2922177 29.28125,18.7229435 C28.7093548,18.1505242 27.8806048,17.9749194 27.1320565,18.2862903 Z M23.7903226,29.6964113 C23.7232258,29.8389919 23.6183871,29.9003226 23.4695161,29.8625806 C23.33375,29.8321774 23.2629839,29.7472581 23.2629839,29.6104435 L23.2629839,24.7380645 L18.3895565,24.7380645 C18.2537903,24.7380645 18.1683468,24.6683468 18.1374194,24.5299597 C18.1049194,24.3842339 18.1604839,24.27625 18.3009677,24.21125 L27.805121,19.8227016 C27.8329032,19.8111694 27.8575403,19.8069758 27.88375,19.8069758 C27.983871,19.8069758 28.0656452,19.8798387 28.0934274,19.907621 C28.1259274,19.940121 28.227621,20.0559677 28.1820161,20.1828226 L23.7903226,29.6964113 Z M24,11 C16.820121,11 11,16.820121 11,24 C11,31.179879 16.820121,37 24,37 C31.179879,37 37,31.179879 37,24 C37,16.820121 31.179879,11 24,11 Z M24,35.3225806 C17.7568548,35.3225806 12.6774194,30.2431452 12.6774194,24 C12.6774194,17.7568548 17.7568548,12.6774194 24,12.6774194 C30.2431452,12.6774194 35.3225806,17.7568548 35.3225806,24 C35.3225806,30.2431452 30.2431452,35.3225806 24,35.3225806 Z" fill="#82934A" fill-rule="nonzero"/></g></svg>