<svg width="22" height="26" viewBox="0 0 22 26" xmlns="http://www.w3.org/2000/svg"><path d="M28.7142857,27.875 L28.4834821,27.875 C27.8863393,27.875 27.3049107,28.0222656 26.7401786,28.2203125 C24.9624881,28.8439139 23.0355476,28.8439139 21.2578571,28.2203125 C20.6941071,28.0222656 20.1141518,27.8760156 19.5184821,27.8760156 L19.2857143,27.8760156 C15.8145937,27.8760156 13.0005424,30.7855458 13,34.375 C13,35.2724627 13.7035525,36 14.5714286,36 L33.4285714,36 C34.2964475,36 35,35.2724627 35,34.375 C35,30.7851491 32.1857899,27.875 28.7142857,27.875 Z M14.5714286,34.375 C14.5741353,31.6837721 16.6832082,29.502799 19.2857143,29.5 L19.5184821,29.5 C19.8583036,29.5 20.2511607,29.5822656 20.7540179,29.7584766 C22.8584883,30.496502 25.1395474,30.496502 27.2440179,29.7584766 C27.7503125,29.58125 28.1441518,29.4989844 28.4834821,29.4989844 L28.7142857,29.4989844 C31.3167918,29.5017834 33.4258647,31.6827565 33.4285714,34.3739844 L14.5714286,34.375 Z M15.3571429,21.375 C15.7910809,21.375 16.1428571,21.0112314 16.1428571,20.5625 L16.1428571,19.75 C16.1428571,15.2700781 19.6677679,11.625 24,11.625 C28.3322321,11.625 31.8571429,15.2700781 31.8571429,19.75 L31.8571429,20.5625 C31.8547072,22.8051127 30.0972518,24.6224813 27.9285714,24.625 L26.3571429,24.625 C26.3571429,23.7275373 25.6535903,23 24.7857143,23 L23.2142857,23 C22.3464097,23 21.6428571,23.7275373 21.6428571,24.625 C21.6428571,25.5224627 22.3464097,26.25 23.2142857,26.25 L27.9285714,26.25 C30.9645672,26.246083 33.4247835,23.7019956 33.4285714,20.5625 L33.4285714,19.75 C33.4285714,14.3732813 29.1994643,10 24,10 C18.8005357,10 14.5714286,14.3732813 14.5714286,19.75 L14.5714286,20.5625 C14.5714286,21.0112314 14.9232048,21.375 15.3571429,21.375 Z M24,14.875 C25.8602585,14.8664167 27.5498313,15.9948613 28.307364,17.7518347 C29.0648967,19.5088081 28.7473834,21.5626317 27.4979018,22.9878125 C27.4979018,22.9923828 27.5042857,22.9954297 27.5067411,23 L27.9285714,23 C28.7390627,22.9981553 29.4915201,22.5648703 29.9198661,21.8533594 C30.1383929,21.1901563 30.2857143,20.4903906 30.2857143,19.75 C30.2857143,16.1601491 27.4715041,13.25 24,13.25 C20.5284959,13.25 17.7142857,16.1601491 17.7142857,19.75 C17.7142857,21.8025781 18.6522321,23.609375 20.0886161,24.8012109 C20.0856696,24.7417969 20.0714286,24.6854297 20.0714286,24.625 C20.0749671,24.0526023 20.2263656,23.4915816 20.5099554,23 C19.2539651,21.5764616 18.9313044,19.5193951 19.6877705,17.7583041 C20.4442365,15.997213 22.1365405,14.8656807 24,14.875 L24,14.875 Z" transform="translate(-13 -10)" fill="#CC9C05"/></svg>